# xmcd CD database file
#
# Track frame offsets:
#	150
#	22784
#	45844
#	73756
#	104714
#	121563
#	148132
#	171879
#	199507
#	218676
#	234166
#	264938
#	285695
#
# Disc length: 3991 seconds
#
# Revision: 0
# Processed by: cddbd v1.5.1PL2 Copyright (c) Steve Scherf et al.
# Submitted via: CDex 1.60beta1
#
DISCID=ac0f950d
DTITLE=Vladimir Shafranov - Kids Are Pretty People
DYEAR=2005
DGENRE=Jazz
TTITLE0=O Que Tinha De Ser
TTITLE1=With Malice Toward None
TTITLE2=Avila and Tequila
TTITLE3=I Wish I Knew
TTITLE4=Cinema Paradiso "Love Theme"
TTITLE5=Glad To Be Unhappy
TTITLE6=Firm Roots
TTITLE7=Brigas Nunca Mais "No more Fighting"
TTITLE8=Easy Walker
TTITLE9=Cup Bearers
TTITLE10=Kids Are Pretty People
TTITLE11=Prelude No.20
TTITLE12=It Never Entered My Mind
EXTD=YEAR: 2005
EXTT0=
EXTT1=
EXTT2=
EXTT3=
EXTT4=
EXTT5=
EXTT6=
EXTT7=
EXTT8=
EXTT9=
EXTT10=
EXTT11=
EXTT12=
PLAYORDER=
